<mxfile host="Electron" agent="Mozilla/5.0 (Windows NT 10.0; Win64; x64) AppleWebKit/537.36 (KHTML, like Gecko) draw.io/27.0.9 Chrome/134.0.6998.205 Electron/35.4.0 Safari/537.36" version="27.0.9">
  <diagram name="Page-1" id="-ZNLdqXlrV8JwBKAGmc7">
    <mxGraphModel dx="1389" dy="1924" grid="1" gridSize="10" guides="1" tooltips="1" connect="1" arrows="1" fold="1" page="1" pageScale="1" pageWidth="850" pageHeight="1100" math="0" shadow="0">
      <root>
        <mxCell id="0" />
        <mxCell id="1" parent="0" />
        <mxCell id="qPhgdcndil_9putnaSgH-50" value="" style="rounded=1;whiteSpace=wrap;html=1;arcSize=5;fillColor=none;dashed=1;" parent="1" vertex="1">
          <mxGeometry x="860" y="-880" width="510" height="520" as="geometry" />
        </mxCell>
        <mxCell id="qPhgdcndil_9putnaSgH-47" value="" style="rounded=1;whiteSpace=wrap;html=1;arcSize=5;fillColor=none;dashed=1;" parent="1" vertex="1">
          <mxGeometry x="140" y="-880" width="590" height="520" as="geometry" />
        </mxCell>
        <mxCell id="qPhgdcndil_9putnaSgH-1" value="Gold Integration Model" style="text;strokeColor=#b85450;align=center;fillColor=#f8cecc;html=1;verticalAlign=middle;whiteSpace=wrap;rounded=0;fontStyle=1;fontSize=22;" parent="1" vertex="1">
          <mxGeometry x="695" y="-1010" width="190" height="60" as="geometry" />
        </mxCell>
        <mxCell id="qPhgdcndil_9putnaSgH-3" value="crm_cust_info" style="swimlane;fontStyle=0;childLayout=stackLayout;horizontal=1;startSize=30;horizontalStack=0;resizeParent=1;resizeParentMax=0;resizeLast=0;collapsible=1;marginBottom=0;whiteSpace=wrap;html=1;rounded=1;fillColor=#dae8fc;strokeColor=#6c8ebf;fontSize=26;shadow=0;gradientColor=none;swimlaneFillColor=none;" parent="1" vertex="1">
          <mxGeometry x="485" y="-630" width="210" height="130" as="geometry">
            <mxRectangle x="90" y="400" width="200" height="40" as="alternateBounds" />
          </mxGeometry>
        </mxCell>
        <mxCell id="qPhgdcndil_9putnaSgH-4" value="cst_id" style="text;strokeColor=none;fillColor=none;align=left;verticalAlign=middle;spacingLeft=4;spacingRight=4;overflow=hidden;points=[[0,0.5],[1,0.5]];portConstraint=eastwest;rotatable=0;whiteSpace=wrap;html=1;fontStyle=1" parent="qPhgdcndil_9putnaSgH-3" vertex="1">
          <mxGeometry y="30" width="210" height="40" as="geometry" />
        </mxCell>
        <mxCell id="qPhgdcndil_9putnaSgH-26" value="cst_key" style="text;strokeColor=none;fillColor=none;align=left;verticalAlign=middle;spacingLeft=4;spacingRight=4;overflow=hidden;points=[[0,0.5],[1,0.5]];portConstraint=eastwest;rotatable=0;whiteSpace=wrap;html=1;fontStyle=1" parent="qPhgdcndil_9putnaSgH-3" vertex="1">
          <mxGeometry y="70" width="210" height="40" as="geometry" />
        </mxCell>
        <mxCell id="zzDbUgytq6uKjwbpOj8Y-3" value="CUSTOMER" style="text;html=1;strokeColor=#C73500;fillColor=#fa6800;align=center;verticalAlign=middle;whiteSpace=wrap;overflow=hidden;fontColor=#000000;fontStyle=1" parent="qPhgdcndil_9putnaSgH-3" vertex="1">
          <mxGeometry y="110" width="210" height="20" as="geometry" />
        </mxCell>
        <mxCell id="qPhgdcndil_9putnaSgH-7" value="Customer Information" style="text;html=1;align=center;verticalAlign=middle;whiteSpace=wrap;rounded=1;fillColor=none;strokeColor=none;fontStyle=1" parent="1" vertex="1">
          <mxGeometry x="495" y="-660" width="160" height="30" as="geometry" />
        </mxCell>
        <mxCell id="qPhgdcndil_9putnaSgH-9" value="crm_prd_info" style="swimlane;fontStyle=0;childLayout=stackLayout;horizontal=1;startSize=30;horizontalStack=0;resizeParent=1;resizeParentMax=0;resizeLast=0;collapsible=1;marginBottom=0;whiteSpace=wrap;html=1;rounded=1;fillColor=#dae8fc;strokeColor=#6c8ebf;fontSize=26;shadow=0;gradientColor=none;swimlaneFillColor=none;" parent="1" vertex="1">
          <mxGeometry x="490" y="-790" width="210" height="90" as="geometry">
            <mxRectangle x="90" y="400" width="200" height="40" as="alternateBounds" />
          </mxGeometry>
        </mxCell>
        <mxCell id="qPhgdcndil_9putnaSgH-17" value="prd_key" style="text;strokeColor=none;fillColor=none;align=left;verticalAlign=middle;spacingLeft=4;spacingRight=4;overflow=hidden;points=[[0,0.5],[1,0.5]];portConstraint=eastwest;rotatable=0;whiteSpace=wrap;html=1;fontStyle=1" parent="qPhgdcndil_9putnaSgH-9" vertex="1">
          <mxGeometry y="30" width="210" height="40" as="geometry" />
        </mxCell>
        <mxCell id="zzDbUgytq6uKjwbpOj8Y-2" value="PRODUCT" style="text;html=1;strokeColor=#006EAF;fillColor=#1ba1e2;align=center;verticalAlign=middle;whiteSpace=wrap;overflow=hidden;fontColor=#ffffff;fontStyle=1" parent="qPhgdcndil_9putnaSgH-9" vertex="1">
          <mxGeometry y="70" width="210" height="20" as="geometry" />
        </mxCell>
        <mxCell id="qPhgdcndil_9putnaSgH-11" value="Current and History Product Information" style="text;html=1;align=center;verticalAlign=middle;whiteSpace=wrap;rounded=1;fillColor=none;strokeColor=none;fontStyle=1" parent="1" vertex="1">
          <mxGeometry x="490" y="-820" width="210" height="30" as="geometry" />
        </mxCell>
        <mxCell id="qPhgdcndil_9putnaSgH-13" value="crm_cust_sales" style="swimlane;fontStyle=0;childLayout=stackLayout;horizontal=1;startSize=30;horizontalStack=0;resizeParent=1;resizeParentMax=0;resizeLast=0;collapsible=1;marginBottom=0;whiteSpace=wrap;html=1;rounded=1;fillColor=#dae8fc;strokeColor=#6c8ebf;fontSize=26;shadow=0;gradientColor=none;swimlaneFillColor=none;" parent="1" vertex="1">
          <mxGeometry x="160" y="-720" width="210" height="130" as="geometry">
            <mxRectangle x="270" y="510" width="200" height="40" as="alternateBounds" />
          </mxGeometry>
        </mxCell>
        <mxCell id="qPhgdcndil_9putnaSgH-14" value="sls_prd_key" style="text;strokeColor=none;fillColor=none;align=left;verticalAlign=middle;spacingLeft=4;spacingRight=4;overflow=hidden;points=[[0,0.5],[1,0.5]];portConstraint=eastwest;rotatable=0;whiteSpace=wrap;html=1;fontStyle=1" parent="qPhgdcndil_9putnaSgH-13" vertex="1">
          <mxGeometry y="30" width="210" height="40" as="geometry" />
        </mxCell>
        <mxCell id="qPhgdcndil_9putnaSgH-18" value="sls_cust_id" style="text;strokeColor=none;fillColor=none;align=left;verticalAlign=middle;spacingLeft=4;spacingRight=4;overflow=hidden;points=[[0,0.5],[1,0.5]];portConstraint=eastwest;rotatable=0;whiteSpace=wrap;html=1;fontStyle=1" parent="qPhgdcndil_9putnaSgH-13" vertex="1">
          <mxGeometry y="70" width="210" height="40" as="geometry" />
        </mxCell>
        <mxCell id="zzDbUgytq6uKjwbpOj8Y-11" value="SALES" style="text;html=1;strokeColor=#005700;fillColor=#008a00;align=center;verticalAlign=middle;whiteSpace=wrap;overflow=hidden;fontColor=#ffffff;fontStyle=1" parent="qPhgdcndil_9putnaSgH-13" vertex="1">
          <mxGeometry y="110" width="210" height="20" as="geometry" />
        </mxCell>
        <mxCell id="qPhgdcndil_9putnaSgH-15" value="Transactional Records of Sales" style="text;html=1;align=center;verticalAlign=middle;whiteSpace=wrap;rounded=1;fillColor=none;strokeColor=none;fontStyle=1" parent="1" vertex="1">
          <mxGeometry x="185" y="-750" width="160" height="30" as="geometry" />
        </mxCell>
        <mxCell id="qPhgdcndil_9putnaSgH-22" style="edgeStyle=orthogonalEdgeStyle;rounded=0;orthogonalLoop=1;jettySize=auto;html=1;exitX=1;exitY=0.5;exitDx=0;exitDy=0;entryX=0;entryY=0.5;entryDx=0;entryDy=0;" parent="1" source="qPhgdcndil_9putnaSgH-18" target="qPhgdcndil_9putnaSgH-4" edge="1">
          <mxGeometry relative="1" as="geometry" />
        </mxCell>
        <mxCell id="qPhgdcndil_9putnaSgH-23" style="edgeStyle=orthogonalEdgeStyle;rounded=0;orthogonalLoop=1;jettySize=auto;html=1;entryX=0;entryY=0.5;entryDx=0;entryDy=0;" parent="1" source="qPhgdcndil_9putnaSgH-14" target="qPhgdcndil_9putnaSgH-17" edge="1">
          <mxGeometry relative="1" as="geometry" />
        </mxCell>
        <mxCell id="qPhgdcndil_9putnaSgH-27" value="erp_cust_az12" style="swimlane;fontStyle=1;childLayout=stackLayout;horizontal=1;startSize=30;horizontalStack=0;resizeParent=1;resizeParentMax=0;resizeLast=0;collapsible=1;marginBottom=0;whiteSpace=wrap;html=1;rounded=1;fillColor=#fff2cc;strokeColor=#d6b656;fontSize=26;shadow=0;swimlaneFillColor=none;" parent="1" vertex="1">
          <mxGeometry x="1080" y="-580" width="190" height="90" as="geometry">
            <mxRectangle x="90" y="400" width="200" height="40" as="alternateBounds" />
          </mxGeometry>
        </mxCell>
        <mxCell id="qPhgdcndil_9putnaSgH-28" value="cst_id" style="text;strokeColor=none;fillColor=none;align=left;verticalAlign=middle;spacingLeft=4;spacingRight=4;overflow=hidden;points=[[0,0.5],[1,0.5]];portConstraint=eastwest;rotatable=0;whiteSpace=wrap;html=1;fontStyle=1" parent="qPhgdcndil_9putnaSgH-27" vertex="1">
          <mxGeometry y="30" width="190" height="40" as="geometry" />
        </mxCell>
        <mxCell id="zzDbUgytq6uKjwbpOj8Y-9" value="CUSTOMER" style="text;html=1;strokeColor=#C73500;fillColor=#fa6800;align=center;verticalAlign=middle;whiteSpace=wrap;overflow=hidden;fontColor=#000000;fontStyle=1" parent="qPhgdcndil_9putnaSgH-27" vertex="1">
          <mxGeometry y="70" width="190" height="20" as="geometry" />
        </mxCell>
        <mxCell id="qPhgdcndil_9putnaSgH-31" value="Customer Information (Birth date)" style="text;html=1;align=center;verticalAlign=middle;whiteSpace=wrap;rounded=1;fillColor=none;strokeColor=none;fontStyle=1" parent="1" vertex="1">
          <mxGeometry x="1080" y="-610" width="200" height="30" as="geometry" />
        </mxCell>
        <mxCell id="qPhgdcndil_9putnaSgH-32" value="erp_loc_a101" style="swimlane;fontStyle=0;childLayout=stackLayout;horizontal=1;startSize=30;horizontalStack=0;resizeParent=1;resizeParentMax=0;resizeLast=0;collapsible=1;marginBottom=0;whiteSpace=wrap;html=1;rounded=1;fillColor=#fff2cc;strokeColor=#d6b656;fontSize=26;shadow=0;swimlaneFillColor=none;" parent="1" vertex="1">
          <mxGeometry x="1080" y="-460" width="190" height="90" as="geometry">
            <mxRectangle x="90" y="400" width="200" height="40" as="alternateBounds" />
          </mxGeometry>
        </mxCell>
        <mxCell id="qPhgdcndil_9putnaSgH-33" value="cst_id" style="text;strokeColor=none;fillColor=none;align=left;verticalAlign=middle;spacingLeft=4;spacingRight=4;overflow=hidden;points=[[0,0.5],[1,0.5]];portConstraint=eastwest;rotatable=0;whiteSpace=wrap;html=1;fontStyle=1" parent="qPhgdcndil_9putnaSgH-32" vertex="1">
          <mxGeometry y="30" width="190" height="40" as="geometry" />
        </mxCell>
        <mxCell id="zzDbUgytq6uKjwbpOj8Y-8" value="CUSTOMER" style="text;html=1;strokeColor=#C73500;fillColor=#fa6800;align=center;verticalAlign=middle;whiteSpace=wrap;overflow=hidden;fontColor=#000000;fontStyle=1" parent="qPhgdcndil_9putnaSgH-32" vertex="1">
          <mxGeometry y="70" width="190" height="20" as="geometry" />
        </mxCell>
        <mxCell id="qPhgdcndil_9putnaSgH-34" value="Customers Location (Country)" style="text;html=1;align=center;verticalAlign=middle;whiteSpace=wrap;rounded=1;fillColor=none;strokeColor=none;" parent="1" vertex="1">
          <mxGeometry x="1080" y="-490" width="200" height="30" as="geometry" />
        </mxCell>
        <mxCell id="qPhgdcndil_9putnaSgH-38" style="edgeStyle=orthogonalEdgeStyle;rounded=0;orthogonalLoop=1;jettySize=auto;html=1;entryX=0.998;entryY=0.755;entryDx=0;entryDy=0;entryPerimeter=0;" parent="1" source="qPhgdcndil_9putnaSgH-33" target="qPhgdcndil_9putnaSgH-26" edge="1">
          <mxGeometry relative="1" as="geometry" />
        </mxCell>
        <mxCell id="qPhgdcndil_9putnaSgH-40" style="edgeStyle=orthogonalEdgeStyle;rounded=0;orthogonalLoop=1;jettySize=auto;html=1;exitX=0;exitY=0.5;exitDx=0;exitDy=0;entryX=0.994;entryY=0.735;entryDx=0;entryDy=0;entryPerimeter=0;" parent="1" source="qPhgdcndil_9putnaSgH-28" target="qPhgdcndil_9putnaSgH-26" edge="1">
          <mxGeometry relative="1" as="geometry" />
        </mxCell>
        <mxCell id="qPhgdcndil_9putnaSgH-41" value="erp_px_cat_g1v2" style="swimlane;fontStyle=1;childLayout=stackLayout;horizontal=1;startSize=30;horizontalStack=0;resizeParent=1;resizeParentMax=0;resizeLast=0;collapsible=1;marginBottom=0;whiteSpace=wrap;html=1;rounded=1;fillColor=#fff2cc;strokeColor=#d6b656;fontSize=26;shadow=0;swimlaneFillColor=none;" parent="1" vertex="1">
          <mxGeometry x="1080" y="-790" width="210" height="90" as="geometry">
            <mxRectangle x="90" y="400" width="200" height="40" as="alternateBounds" />
          </mxGeometry>
        </mxCell>
        <mxCell id="qPhgdcndil_9putnaSgH-42" value="id" style="text;strokeColor=none;fillColor=none;align=left;verticalAlign=middle;spacingLeft=4;spacingRight=4;overflow=hidden;points=[[0,0.5],[1,0.5]];portConstraint=eastwest;rotatable=0;whiteSpace=wrap;html=1;fontStyle=1" parent="qPhgdcndil_9putnaSgH-41" vertex="1">
          <mxGeometry y="30" width="210" height="40" as="geometry" />
        </mxCell>
        <mxCell id="zzDbUgytq6uKjwbpOj8Y-7" value="PRODUCT" style="text;html=1;strokeColor=#006EAF;fillColor=#1ba1e2;align=center;verticalAlign=middle;whiteSpace=wrap;overflow=hidden;fontColor=#ffffff;fontStyle=1" parent="qPhgdcndil_9putnaSgH-41" vertex="1">
          <mxGeometry y="70" width="210" height="20" as="geometry" />
        </mxCell>
        <mxCell id="qPhgdcndil_9putnaSgH-43" value="Product category Information" style="text;html=1;align=center;verticalAlign=middle;whiteSpace=wrap;rounded=1;fillColor=none;strokeColor=none;fontStyle=1" parent="1" vertex="1">
          <mxGeometry x="1080" y="-820" width="200" height="30" as="geometry" />
        </mxCell>
        <mxCell id="qPhgdcndil_9putnaSgH-44" style="edgeStyle=orthogonalEdgeStyle;rounded=0;orthogonalLoop=1;jettySize=auto;html=1;exitX=1;exitY=0.5;exitDx=0;exitDy=0;entryX=0;entryY=0.5;entryDx=0;entryDy=0;" parent="1" source="qPhgdcndil_9putnaSgH-17" target="qPhgdcndil_9putnaSgH-42" edge="1">
          <mxGeometry relative="1" as="geometry" />
        </mxCell>
        <mxCell id="qPhgdcndil_9putnaSgH-48" value="&lt;font style=&quot;font-size: 35px;&quot;&gt;&lt;b&gt;CRM&lt;/b&gt;&lt;/font&gt;" style="rounded=1;whiteSpace=wrap;html=1;fillColor=#dae8fc;strokeColor=#6c8ebf;" parent="1" vertex="1">
          <mxGeometry x="375" y="-900" width="120" height="60" as="geometry" />
        </mxCell>
        <mxCell id="qPhgdcndil_9putnaSgH-51" value="&lt;font style=&quot;font-size: 35px;&quot;&gt;&lt;b&gt;ERP&lt;/b&gt;&lt;/font&gt;" style="rounded=1;whiteSpace=wrap;html=1;fillColor=#fff2cc;strokeColor=#d6b656;" parent="1" vertex="1">
          <mxGeometry x="1055" y="-900" width="120" height="60" as="geometry" />
        </mxCell>
      </root>
    </mxGraphModel>
  </diagram>
</mxfile>
